<svg id="eCJHkS3w8o11" xmlns="http://www.w3.org/2000/svg" xmlns:xlink="http://www.w3.org/1999/xlink" viewBox="0 0 65 65" shape-rendering="geometricPrecision" text-rendering="geometricPrecision"><ellipse rx="25" ry="25" transform="translate(32.5 32.5)" fill="#f08000" stroke-width="0"/><rect width="19.447308" height="17.0487" rx="0" ry="0" transform="matrix(.727203 0.727203-.829514 0.829514 32.5 34.464415)" fill="#f08000" stroke-width="0"/><ellipse rx="12.5" ry="12.5" transform="translate(32.5 32.5)" fill="#fff" stroke="#222" stroke-width="0.3"/><path d="M29.402672,19.983483c7.916149,1.441866,15.856712,12.988544,12.110544,20.782324" transform="matrix(.901801 0.050524-.057856 1.032677 5.253421-1.972003)" fill="none" stroke="#222" stroke-width="0.3"/><path d="M21.093611,27.161974c7.449407-3.101903,14.563189-1.194526,17.232673-5.744224" transform="translate(.000001 0)" fill="none" stroke="#222" stroke-width="0.3"/><path d="M20.68331,36.352733c-.364419-3.03466,16.360909-8.652953,22.648656-10.011362" fill="none" stroke="#222" stroke-width="0.3"/><path d="" fill="none" stroke="#222" stroke-width="0.3"/><path d="" fill="none" stroke="#222" stroke-width="0.3"/><path d="M28.232862,44.066406c5.655-3.549618,6.415479-10.61516,12.555233-11.566406" transform="translate(.000001 0)" fill="none" stroke="#222" stroke-width="0.3"/><path d="M40.788096,32.5c1.997659-.267677,3.459332.79619,4.211904,1.555044" fill="none" stroke="#222" stroke-width="0.3"/></svg>
