<svg xmlns="http://www.w3.org/2000/svg" viewBox="0 0 32 32" aria-hidden="true" role="presentation" focusable="false" style="display: block; height: 16px; width: 16px; fill: currentcolor;"><path d="M28 7h-8V4a2 2 0 0 0-2-2H4a2 2 0 0 0-2 2v24c0 1.1.9 2 2 2h24a2 2 0 0 0 2-2V9a2 2 0 0 0-2-2zM8 7a1 1 0 1 1 0 2 1 1 0 0 1 0-2zm0 4a1 1 0 1 1 0 2 1 1 0 0 1 0-2zm0 4a1 1 0 1 1 0 2 1 1 0 0 1 0-2zm7 13H7v-5c0-1.1.9-2 2-2h4a2 2 0 0 1 2 2zm-1-11a1 1 0 1 1 0-2 1 1 0 0 1 0 2zm0-4a1 1 0 1 1 0-2 1 1 0 0 1 0 2zm0-4a1 1 0 1 1 0-2 1 1 0 0 1 0 2zm8 19h-2V9h2zm4-11a1 1 0 1 1 0-2 1 1 0 0 1 0 2zm0-4a1 1 0 1 1 0-2 1 1 0 0 1 0 2z"></path></svg>
