<svg id="l_d_11669" xmlns="http://www.w3.org/2000/svg" xmlns:xlink="http://www.w3.org/1999/xlink" viewBox="0 0 45 45" width="45" height="45" preserveAspectRatio="xMidYMid meet" style="width: 100%; height: 100%; transform: translate3d(0px, 0px, 0px); content-visibility: visible;"><defs id="l_d_11670"><clipPath id="__lottie_element_5086"><rect id="l_d_11673" width="45" height="45" x="0" y="0"></rect></clipPath><g id="__lottie_element_5089"><g id="l_d_11674" style="display: none;"><g id="l_d_11679"><path id="l_d_11680"></path></g></g></g><mask id="__lottie_element_5089_1" mask-type="alpha"><use id="l_d_11693" xlink:href="#__lottie_element_5089"></use></mask><g id="__lottie_element_5104"><g id="l_d_11712" style="display: none;"><g id="l_d_11717"><path id="l_d_11718"></path></g></g></g><mask id="__lottie_element_5104_1" mask-type="alpha"><use id="l_d_11726" xlink:href="#__lottie_element_5104"></use></mask></defs><g id="l_d_11671" clip-path="url(#__lottie_element_5086)"><g id="l_d_11720" mask="url(#__lottie_element_5104_1)" style="display: none;"><g id="l_d_11719"><g id="l_d_11723"><path id="l_d_11724" stroke-linecap="butt" stroke-linejoin="miter" fill-opacity="0" stroke-miterlimit="4"></path></g></g></g><g id="l_d_11706" transform="matrix(1,0,0,1,-22.625,-17.5)" opacity="1" style="display: block;"><g id="l_d_11710" opacity="1" transform="matrix(1,0,0,1,40,40)"><path id="l_d_11711" stroke-linecap="butt" stroke-linejoin="miter" fill-opacity="0" stroke-miterlimit="4" stroke="rgb(34,34,34)" stroke-opacity="1" stroke-width="2" d=" M-10,-12 C-10,-12 10,-12 10,-12 C12.208999633789062,-12 14,-10.208999633789062 14,-8 C14,-8 14,8 14,8 C14,10.208999633789062 12.208999633789062,12 10,12 C10,12 -10,12 -10,12 C-12.208999633789062,12 -14,10.208999633789062 -14,8 C-14,8 -14,-8 -14,-8 C-14,-10.208999633789062 -12.208999633789062,-12 -10,-12z"></path></g></g><g id="l_d_11700" transform="matrix(1,0,0,1,-22.625,-17.5)" opacity="1" style="display: block;"><g id="l_d_11704" opacity="1" transform="matrix(1,0,0,1,40,40)"><path id="l_d_11705" stroke-linecap="butt" stroke-linejoin="miter" fill-opacity="0" stroke-miterlimit="4" stroke="rgb(34,34,34)" stroke-opacity="1" stroke-width="2" d=" M-2,2 C-2.062000036239624,2.875 -2,6 -2,6 C-2,6 2,6 2,6 C2,6 2,2 2,2 C2,2 6,2 6,2 C6,2 6,-2 6,-2 C6,-2 2,-2 2,-2 C2,-2 2,-6 2,-6 C2,-6 -2,-6 -2,-6 C-2,-6 -2,-2 -2,-2 C-2,-2 -6,-2 -6,-2 C-6,-2 -6,2 -6,2 C-6,2 -3,1.937999963760376 -2,2z"></path></g></g><g id="l_d_11694" style="display: none;"><g id="l_d_11698"><path id="l_d_11699" stroke-linecap="butt" stroke-linejoin="miter" fill-opacity="0" stroke-miterlimit="4"></path></g></g><g id="l_d_11682" mask="url(#__lottie_element_5089_1)" style="display: none;"><g id="l_d_11681"><g id="l_d_11685"><g id="l_d_11686"><path id="l_d_11687" stroke-linecap="butt" stroke-linejoin="round" fill-opacity="0"></path></g><g id="l_d_11688"><path id="l_d_11689" stroke-linecap="butt" stroke-linejoin="round" fill-opacity="0"></path></g><g id="l_d_11690"><path id="l_d_11691"></path></g></g></g></g></g></svg>
