<svg id="ej9JTxXRLCp1" xmlns="http://www.w3.org/2000/svg" xmlns:xlink="http://www.w3.org/1999/xlink" width='45px' height='45px' viewBox="10 4 55 55" shape-rendering="geometricPrecision" text-rendering="geometricPrecision"><rect width="40" height="25" rx="0" ry="0" transform="translate(12 13)" fill="#fff" fill-opacity="0" stroke="#000" stroke-width="1.5" stroke-linecap="round" stroke-linejoin="round" stroke-miterlimit="2"/><rect width="35" height="20" rx="0" ry="0" transform="translate(14.5 15.5)" fill="#fff" fill-opacity="0" stroke="#000" stroke-width="1.5" stroke-linecap="round" stroke-linejoin="round"/><rect width="25" height="3" rx="0" ry="0" transform="translate(19.5 38)" fill="#fff" fill-opacity="0" stroke="#000" stroke-width="1.5" stroke-linecap="round" stroke-linejoin="round"/><rect width="10" height="5" rx="0" ry="0" transform="matrix(0 1-1 0 34.500011 41)" fill="#fff" fill-opacity="0" stroke="#000" stroke-width="1.5" stroke-linecap="round" stroke-linejoin="round"/><line x1="-2.629814" y1="3.452738" x2="2.629814" y2="-3.452738" transform="translate(37.129825 44.452738)" stroke="#000" stroke-width="1.5"/><line x1="-2.629814" y1="3.452738" x2="2.629814" y2="-3.452738" transform="matrix(-1.000004 0 0 1 26.870186 44.452738)" stroke="#000" stroke-width="1.5"/><ellipse rx="2.5" ry="2.5" transform="translate(32 20.94696)" fill-opacity="0" stroke="#000" stroke-width="1.5"/><ellipse rx="2.5" ry="2.5" transform="translate(22 20.94696)" fill-opacity="0" stroke="#000" stroke-width="1.5"/><ellipse rx="2.5" ry="2.5" transform="translate(42 20.94696)" fill-opacity="0" stroke="#000" stroke-width="1.5"/><ellipse rx="2.5" ry="2.5" transform="translate(32 29.659424)" fill-opacity="0" stroke="#000" stroke-width="1.5"/><ellipse rx="2.5" ry="2.5" transform="translate(22 29.659424)" fill-opacity="0" stroke="#000" stroke-width="1.5"/><ellipse rx="2.5" ry="2.5" transform="translate(42 29.659424)" fill-opacity="0" stroke="#000" stroke-width="1.5"/></svg>
