<svg id="eVtKsBcixH11" xmlns="http://www.w3.org/2000/svg" xmlns:xlink="http://www.w3.org/1999/xlink" width='45px' height='45px' viewBox="0 0 512 512" shape-rendering="geometricPrecision" text-rendering="geometricPrecision"><g><g><g><g><path d="M503.652,71.838h-495.304C3.738,71.838,0,75.576,0,80.186v351.628c0,4.61,3.738,8.348,8.348,8.348h495.304c4.61,0,8.348-3.738,8.348-8.348v-351.628c0-4.61-3.738-8.348-8.348-8.348ZM495.304,181.22h-45.634c-4.61,0-8.348,3.738-8.348,8.348s3.738,8.348,8.348,8.348h45.635v225.55h-478.609v-225.55h377.104c4.61,0,8.348-3.738,8.348-8.348s-3.738-8.348-8.348-8.348h-377.104v-92.686h478.609v92.686Z" stroke="#000" stroke-width="0.00512"/><path d="M94.487,162.168h47.426h47.426c4.61,0,8.348-3.738,8.348-8.348v-42.005c0-4.61-3.738-8.348-8.348-8.348h-47.426-47.426c-4.61,0-8.348,3.738-8.348,8.348v42.005c.001,4.611,3.738,8.348,8.348,8.348Zm55.774-42.005h30.73v25.309h-30.73v-25.309Zm-47.426-.001h30.73v25.309h-30.73v-25.309Z" stroke="#000" stroke-width="0.00512"/><path d="M322.661,162.168h47.426h47.426c4.61,0,8.348-3.738,8.348-8.348v-42.005c0-4.61-3.738-8.348-8.348-8.348h-47.426-47.426c-4.61,0-8.348,3.738-8.348,8.348v42.005c0,4.611,3.738,8.348,8.348,8.348Zm55.774-42.005h30.73v25.309h-30.73v-25.309Zm-47.426-.001h30.73v25.309h-30.73v-25.309Z" stroke="#000" stroke-width="0.00512"/><path d="M278.424,236.829v82.423c0,4.61,3.738,8.348,8.348,8.348s8.348-3.738,8.348-8.348v-74.075h141.357v126.132h-141.357v-16.44c0-4.61-3.738-8.348-8.348-8.348s-8.348,3.738-8.348,8.348v24.787c0,4.61,3.738,8.348,8.348,8.348h158.052c4.61,0,8.348-3.738,8.348-8.348v-142.827c0-4.61-3.738-8.348-8.348-8.348h-158.052c-4.61,0-8.348,3.738-8.348,8.348Z" stroke="#000" stroke-width="0.00512"/><path d="M339.117,332.386c-4.714,0-8.726-2.002-8.726-5.809c0-4.607-3.811-5.709-8.124-5.709-5.015,0-7.323,1.503-7.323,6.31c0,8.312,6.721,18.829,23.672,18.829c14.444,0,25.578-6.41,25.578-23.637v-26.54c0-17.227-10.833-23.637-24.675-23.637s-24.575,6.41-24.575,23.637v.902c0,16.025,9.629,21.032,21.064,21.032c4.815,0,9.328-.902,12.538-4.407v9.013c-.001,6.912-3.511,10.016-9.429,10.016Zm.502-26.64c-5.718,0-9.028-2.805-9.028-10.115v-.902c0-6.911,3.31-9.915,8.928-9.915c5.617,0,9.028,3.004,9.028,9.915v1.803c-.002,6.61-3.512,9.214-8.928,9.214Z" stroke="#000" stroke-width="0.00512"/><path d="M370.412,330.884v9.715c0,2.905,4.011,4.807,6.821,4.807h35.709c2.508,0,4.715-3.305,4.715-6.91c0-3.606-2.206-6.711-4.715-6.711h-26.28v-.902c0-9.114,30.995-16.225,30.995-37.958c0-13.421-11.736-20.732-23.372-20.732-11.434,0-22.669,7.011-22.669,19.229c0,6.31,3.01,8.113,7.021,8.113c5.116,0,8.225-2.805,8.225-5.709c0-5.508,3.511-7.512,7.523-7.512c5.618,0,7.623,3.906,7.623,7.111.001,12.722-31.596,21.736-31.596,37.459Z" stroke="#000" stroke-width="0.00512"/><path d="M225.228,228.481h-158.052c-4.61,0-8.348,3.738-8.348,8.348v142.828c0,4.61,3.738,8.348,8.348,8.348h158.052c4.61,0,8.348-3.738,8.348-8.348v-24.787c0-4.61-3.738-8.348-8.348-8.348s-8.348,3.738-8.348,8.348v16.44h-141.357v-126.133h141.357v74.075c0,4.61,3.738,8.348,8.348,8.348s8.348-3.738,8.348-8.348v-82.423c-.001-4.61-3.738-8.348-8.348-8.348Z" stroke="#000" stroke-width="0.00512"/><path d="M141.588,292.926c0-13.421-11.736-20.732-23.372-20.732-11.434,0-22.669,7.011-22.669,19.229c0,6.31,3.01,8.113,7.021,8.113c5.116,0,8.225-2.805,8.225-5.709c0-5.508,3.511-7.512,7.523-7.512c5.618,0,7.623,3.906,7.623,7.111c0,12.72-31.596,21.733-31.596,37.457v9.715c0,2.905,4.011,4.807,6.821,4.807h35.709c2.508,0,4.715-3.305,4.715-6.91c0-3.606-2.207-6.711-4.715-6.711h-26.28v-.902c0-9.111,30.995-16.222,30.995-37.956Z" stroke="#000" stroke-width="0.00512"/><path d="M146.603,324.174v1.202c0,14.923,10.833,20.631,24.675,20.631s24.575-5.709,24.575-20.631v-1.202c0-10.316-4.915-16.325-12.337-18.828c5.918-2.003,9.931-7.011,9.931-15.324c0-12.519-9.228-17.828-22.167-17.828s-22.168,5.308-22.168,17.828c0,8.313,4.013,13.321,9.931,15.324-7.424,2.503-12.44,8.512-12.44,18.828Zm24.677-39.46c4.513,0,7.121,2.203,7.121,7.31c0,5.208-2.608,7.211-7.121,7.211-4.515,0-7.121-2.002-7.121-7.211-.002-5.107,2.606-7.31,7.121-7.31Zm-9.028,36.556c0-6.51,3.41-9.514,9.028-9.514c5.616,0,8.928,3.004,8.928,9.514v2.203c0,6.711-3.21,10.016-8.928,10.016-5.517,0-9.028-3.105-9.028-10.016v-2.203Z" stroke="#000" stroke-width="0.00512"/></g></g></g></g><rect width="16.74322" height="36.108984" rx="0" ry="0" transform="translate(216.83278 319.239287)" stroke-width="0"/><rect width="16.74322" height="36.108984" rx="0" ry="0" transform="translate(278.424 319.239287)" stroke-width="0"/><rect width="16.74322" height="36.108984" rx="0" ry="0" transform="matrix(0 1-1.539478 0 449.623486 181.192216)" stroke-width="0"/></svg>
